<svg width="199" height="119" viewBox="0 0 199 119" fill="none" xmlns="http://www.w3.org/2000/svg">
<g style="mix-blend-mode:multiply">
<path d="M15.5101 25.2103L9.48012 19.1703H4.12012L10.1401 25.2103H15.5101Z" fill="#CCCCCC"/>
</g>
<g style="mix-blend-mode:multiply">
<path d="M16.0004 19.1902L15.9204 35.0002H9.36035L15.3604 41.0002H21.9104L22.0304 25.1902H27.4004C27.7004 23.1002 27.9804 21.0202 28.2804 18.8602L22.4904 13.0402C22.5211 12.9768 22.5579 12.9165 22.6004 12.8602C22.5955 12.8338 22.5955 12.8067 22.6004 12.7802C22.6318 12.7387 22.6688 12.7017 22.7104 12.6702C22.7877 12.5742 22.8787 12.49 22.9804 12.4202L23.1404 12.3202C23.234 12.2584 23.3347 12.208 23.4404 12.1702L23.6204 12.1002L24.0004 12.0002H24.1704C24.3691 11.9694 24.5694 11.9493 24.7704 11.9402H26.1604H28.4604V6.30023L22.4604 0.300232V5.93023H20.1804C19.7204 5.93023 19.2504 5.93023 18.7904 5.93023C18.5907 5.91454 18.39 5.91454 18.1904 5.93023L18.0004 6.00023C17.8747 6.01958 17.7509 6.04969 17.6304 6.09023L17.4504 6.16023C17.3424 6.20004 17.2386 6.25027 17.1404 6.31023L16.9904 6.41023C16.89 6.48536 16.7963 6.569 16.7104 6.66023C16.7104 6.66023 16.6504 6.66023 16.6304 6.74023L16.5704 6.82023C16.5302 6.87456 16.4935 6.93134 16.4604 6.99023C16.4311 7.0337 16.4076 7.08075 16.3904 7.13023V7.22023V7.29023C16.3464 7.41128 16.3097 7.53483 16.2804 7.66023C16.2804 7.66023 16.2804 7.77023 16.2804 7.82023C16.2804 7.87023 16.2804 8.04023 16.2304 8.16023C16.1804 8.28023 16.2304 8.27023 16.2304 8.32023C16.0704 9.74023 16.0004 12.7002 16.0004 12.8602L21.4604 18.3402L21.3404 19.1902H16.0004Z" fill="#CCCCCC"/>
</g>
<path d="M17.9301 0.00026037C18.8601 0.00026037 19.8101 0.0502604 20.7401 0.0902604C21.3501 0.0902604 21.9601 0.20026 22.5301 0.27026V5.90026H20.1801C19.7201 5.90026 19.2501 5.90026 18.7901 5.90026C17.3001 5.90026 16.2001 6.51026 16.1201 8.37026C16.0701 9.74026 16.0001 12.7003 16.0001 12.8603H22.2201C21.9201 15.0203 21.6401 17.1003 21.3401 19.1903H16.0001L15.9201 35.0003H9.36012L9.48012 19.1603H4.12012V12.8603H9.56012V12.4003C9.56012 11.1303 9.56012 9.86026 9.56012 8.59026C9.56512 7.78258 9.63535 6.97663 9.77012 6.18026C9.91228 5.24409 10.2392 4.34555 10.732 3.53695C11.2247 2.72834 11.8733 2.02581 12.6401 1.47026C14.0368 0.500271 15.6997 -0.0132625 17.4001 0.00026037H17.9301Z" fill="white"/>
<g style="mix-blend-mode:multiply">
<path d="M87 13.4502C86.56 13.0102 86.14 12.5502 85.73 12.0602L79.73 6.06024C80.14 6.54024 80.56 7.06024 80.99 7.44024L87 13.4502Z" fill="#CCCCCC"/>
</g>
<g style="mix-blend-mode:multiply">
<path d="M80.6899 14.0602L86.6899 20.0602C87.0019 20.3526 87.3363 20.6201 87.6899 20.8602L81.6899 14.8102C81.334 14.592 80.9992 14.3409 80.6899 14.0602Z" fill="#CCCCCC"/>
</g>
<g style="mix-blend-mode:multiply">
<path d="M80.6299 18.8702L86.6299 24.9202C87.5555 25.8297 88.7269 26.4484 89.9999 26.7002L83.9999 20.6502C82.7269 20.3984 81.5555 19.7797 80.6299 18.8702Z" fill="#CCCCCC"/>
</g>
<g style="mix-blend-mode:multiply">
<path d="M114.44 12.5103C114.44 12.4203 114.52 12.3203 114.57 12.2303C114.62 12.1403 114.73 11.9103 114.8 11.7303C114.87 11.5503 114.89 11.4803 114.93 11.3603L108.93 5.36029C108.828 5.66191 108.704 5.95596 108.56 6.24029L108.44 6.51029C108.322 6.71445 108.192 6.91146 108.05 7.10029C107.97 7.21029 107.9 7.34029 107.81 7.45029C107.65 7.6456 107.476 7.82939 107.29 8.00029C107.209 8.09513 107.122 8.18527 107.03 8.27029C106.742 8.53362 106.43 8.7712 106.1 8.98029L107.61 10.4903C107.291 10.7775 106.957 11.0478 106.61 11.3003L106.5 11.5203C106.5 12.1103 106.5 12.7003 106.5 13.2903C106.5 13.6803 106.44 14.0703 106.39 14.4703C106.32 15.0303 106.21 15.5903 106.09 16.1403C106.02 16.4803 105.93 16.8203 105.83 17.1403C105.83 17.2703 105.77 17.4003 105.73 17.5303C105.59 18.0003 105.43 18.4603 105.26 18.9203C105.09 19.3803 104.86 19.9203 104.64 20.3803C104.42 20.8403 104.2 21.2403 103.96 21.6603C103.72 22.0803 103.62 22.2303 103.44 22.5103L103.09 23.0603C102.88 23.3703 102.65 23.6703 102.41 23.9703C102.31 24.1103 102.21 24.2503 102.1 24.3803C101.755 24.8124 101.388 25.2262 101 25.6203C98.638 28.0794 95.6235 29.8139 92.3103 30.6203L87.1703 25.4603C85.4517 25.4088 83.8202 24.6917 82.6203 23.4603L88.6203 29.5103C89.1997 30.0855 89.8769 30.5528 90.6203 30.8903C89.7733 31.029 88.9181 31.1125 88.0603 31.1403H87.4603C83.9224 31.1504 80.4544 30.1551 77.4603 28.2703L77.3003 28.1703L83.3003 34.2203L83.4603 34.3203C86.453 36.2082 89.9219 37.2038 93.4603 37.1903H94.0603C95.308 37.1597 96.5501 37.0124 97.7703 36.7503C101.276 36.0099 104.477 34.2331 106.96 31.6503C107.34 31.2603 107.71 30.8403 108.06 30.4203C108.16 30.2903 108.24 30.1603 108.34 30.0403C108.57 29.7403 108.8 29.4403 109.01 29.1303C109.22 28.8203 109.25 28.7603 109.36 28.5803C109.47 28.4003 109.72 28.0103 109.89 27.7203L109.96 27.6003C110.17 27.2203 110.37 26.8403 110.56 26.4503C110.75 26.0603 111 25.4503 111.18 24.9903C111.35 24.5403 111.5 24.0903 111.64 23.6303C111.64 23.5003 111.7 23.3703 111.74 23.2403C111.82 22.9403 111.91 22.6503 111.98 22.3403C111.975 22.3038 111.975 22.2667 111.98 22.2303C112.1 21.6703 112.2 21.1203 112.27 20.5503C112.27 20.2303 112.35 19.9103 112.38 19.5503V19.3403C112.41 18.7473 112.41 18.1532 112.38 17.5603L112.49 17.3503C112.944 17.027 113.375 16.6728 113.78 16.2903C113.91 16.1603 114.02 16.0203 114.15 15.8903C114.28 15.7603 114.67 15.3703 114.9 15.0903L115.02 14.9503C115.25 14.6703 115.45 14.3803 115.66 14.0703L114.25 12.6603L114.44 12.5103Z" fill="#CCCCCC"/>
</g>
<path d="M109.79 7.93027C109.556 8.30735 109.291 8.66515 109 9.00027C108.298 9.87379 107.481 10.6476 106.57 11.3003L106.46 11.5203C106.49 12.506 106.44 13.4926 106.31 14.4703C106.035 16.522 105.445 18.5189 104.56 20.3903C103.658 22.2992 102.456 24.0514 101 25.5803C98.5151 28.155 95.319 29.9305 91.8201 30.6803C90.5996 30.939 89.3575 31.083 88.1101 31.1103H87.5101C83.9722 31.1204 80.5042 30.1251 77.5101 28.2403L77.3501 28.1403C77.868 28.1996 78.3888 28.2296 78.9101 28.2303C80.6591 28.2332 82.3917 27.8935 84.0101 27.2303C85.1513 26.7651 86.2217 26.1424 87.1901 25.3803C85.8047 25.3601 84.4609 24.9039 83.3496 24.0763C82.2384 23.2487 81.4163 22.0919 81.0001 20.7703C81.4086 20.8498 81.8239 20.89 82.2401 20.8903C82.7824 20.8913 83.3229 20.8275 83.8501 20.7003L83.9501 20.6503C83.0661 20.4749 82.2283 20.1177 81.4897 19.6012C80.7512 19.0848 80.1281 18.4204 79.6601 17.6503C78.9894 16.5964 78.6418 15.3693 78.6601 14.1203C79.5827 14.6193 80.6114 14.8902 81.6601 14.9103C80.2708 13.9627 79.292 12.524 78.9209 10.8838C78.5498 9.24351 78.8139 7.52358 79.6601 6.07027C81.3178 8.13088 83.3909 9.81921 85.7445 11.0253C88.0981 12.2314 90.6793 12.9282 93.3201 13.0703C93.3201 12.8003 93.2401 12.5703 93.2101 12.3403C93.0158 10.8207 93.3704 9.28162 94.2101 8.00027C94.7025 7.20168 95.3627 6.51973 96.1449 6.00171C96.9271 5.48368 97.8127 5.14197 98.7401 5.00027C99.1406 4.9384 99.5449 4.90499 99.9501 4.90027C100.812 4.90784 101.663 5.08882 102.454 5.43243C103.244 5.77604 103.957 6.27523 104.55 6.90027C104.613 6.96686 104.699 7.00634 104.79 7.01027H104.9C106.262 6.72108 107.571 6.22178 108.78 5.53027L108.87 5.48027C108.388 6.98528 107.384 8.26885 106.04 9.10027C107.342 8.90384 108.607 8.50927 109.79 7.93027Z" fill="white"/>
<g style="mix-blend-mode:multiply">
<path d="M171.06 12.2402C170.824 12.307 170.594 12.3905 170.37 12.4902C170.246 12.5457 170.126 12.6092 170.01 12.6802C169.818 12.7874 169.631 12.9042 169.45 13.0302C169.34 13.1202 169.23 13.2002 169.12 13.3002C169.01 13.4002 168.81 13.5902 168.66 13.7502C168.51 13.9102 168.54 13.8602 168.49 13.9202C168.44 13.9802 168.41 14.0502 168.37 14.1002C168.33 14.1502 168.21 14.3302 168.13 14.4402C168.05 14.5502 168.03 14.5902 167.98 14.6702C167.93 14.7502 167.89 14.8702 167.84 14.9702C167.799 15.0483 167.763 15.1284 167.73 15.2102L167.66 15.3602C167.58 15.5802 167.51 15.8102 167.45 16.0402C167.45 16.0402 167.45 16.0902 167.45 16.1102C167.401 16.3276 167.368 16.5482 167.35 16.7702C167.35 16.8702 167.35 16.9702 167.35 17.0802C167.335 17.27 167.335 17.4605 167.35 17.6502C167.35 17.7702 167.35 17.8802 167.4 17.9902C167.404 18.0635 167.404 18.137 167.4 18.2102C167.455 18.4858 167.532 18.7567 167.63 19.0202V19.0702L167.69 19.2102C167.79 19.4469 167.91 19.6745 168.05 19.8902L168.17 20.0702L168.25 20.2002C168.4 20.4017 168.563 20.5922 168.74 20.7702L173 25.0402C172.78 25.0402 172.56 25.0402 172.33 25.0402C171.012 25.0299 169.719 24.6858 168.57 24.0402C167.904 23.6715 167.292 23.214 166.75 22.6802L172.75 28.7302C173.482 29.4637 174.352 30.0454 175.31 30.4418C176.267 30.8382 177.294 31.0416 178.33 31.0402C178.62 31.0552 178.91 31.0552 179.2 31.0402L179.48 30.9902C179.671 30.97 179.862 30.94 180.05 30.9002L180.37 30.8102L180.87 30.6702L181.19 30.5502L181.65 30.3602L181.96 30.2102L182.4 29.9602L182.68 29.8002L183.12 29.4802L183.34 29.3102C183.526 29.1677 183.703 29.0141 183.87 28.8503L183.96 28.7702C184.154 28.5768 184.338 28.3731 184.51 28.1602C184.513 28.1404 184.513 28.1201 184.51 28.1003C184.779 27.7713 185.02 27.42 185.23 27.0502C185.397 26.7468 185.544 26.4328 185.67 26.1102C185.674 26.077 185.674 26.0435 185.67 26.0102C185.673 25.9636 185.673 25.9169 185.67 25.8702C185.77 25.6099 185.85 25.3425 185.91 25.0702C185.913 25.027 185.913 24.9835 185.91 24.9402C185.98 24.6102 186.03 24.2763 186.06 23.9402C186.055 23.9104 186.055 23.8801 186.06 23.8502C186.06 23.6602 186.06 23.4802 186.06 23.2902C186.075 23.0205 186.075 22.75 186.06 22.4802C186.033 22.1432 185.979 21.8089 185.9 21.4802L185.84 21.2202C185.77 20.9702 185.7 20.7302 185.61 20.4902V20.3402V20.2702C185.496 19.9797 185.366 19.6959 185.22 19.4202L185.12 19.2702C184.999 19.0475 184.862 18.8336 184.71 18.6302C184.683 18.5925 184.66 18.5523 184.64 18.5102L184.55 18.4102C184.34 18.1388 184.117 17.8784 183.88 17.6302L177.88 11.6302C178.119 11.8728 178.343 12.1299 178.55 12.4002L178.7 12.6202C178.85 12.8302 178.99 13.0402 179.12 13.2602L179.21 13.4102C179.357 13.6867 179.491 13.9704 179.61 14.2602C179.61 14.3302 179.66 14.4102 179.69 14.4802C179.77 14.7202 179.85 14.9602 179.91 15.2102C179.938 15.299 179.961 15.3891 179.98 15.4802C180.055 15.8098 180.108 16.1438 180.14 16.4802C180.155 16.75 180.155 17.0205 180.14 17.2902C180.14 17.5002 180.14 17.7102 180.14 17.9102L175.88 13.6402C175.415 13.1654 174.859 12.7882 174.246 12.5306C173.633 12.2731 172.975 12.1403 172.31 12.1402C171.936 12.1429 171.564 12.1865 171.2 12.2702C171.154 12.2593 171.107 12.2493 171.06 12.2402ZM174.39 20.1502C174.48 20.0302 174.59 19.9102 174.69 19.8002C174.831 19.6379 174.985 19.4874 175.15 19.3502C175.251 19.2496 175.361 19.1591 175.48 19.0802C175.655 18.9463 175.843 18.8291 176.04 18.7302C176.16 18.6602 176.27 18.5902 176.4 18.5302C176.621 18.4354 176.848 18.3553 177.08 18.2902L177.42 18.1802C177.785 18.1046 178.157 18.0645 178.53 18.0602H178.58C179.165 18.0675 179.744 18.1792 180.29 18.3902C180.276 18.535 180.253 18.6787 180.22 18.8202C180.22 18.8802 180.22 18.9302 180.22 18.9902C180.15 19.2602 180.07 19.5302 179.98 19.7902L179.89 20.0402C179.764 20.3595 179.617 20.6701 179.45 20.9702V21.0302C179.238 21.3804 179.001 21.7147 178.74 22.0302L178.67 22.1202C178.49 22.3302 178.31 22.5402 178.12 22.7302L178.03 22.8102L177.5 23.2802C177.427 23.3392 177.351 23.3927 177.27 23.4402L176.83 23.7602L176.55 23.9302C176.41 24.0102 176.26 24.1002 176.11 24.1702L175.81 24.3202L175.34 24.5102L175.02 24.6302C174.86 24.6902 174.69 24.7302 174.52 24.7802L174.2 24.8602L173.76 24.9402C173.672 24.7085 173.598 24.4714 173.54 24.2302V24.0102C173.488 23.7097 173.461 23.4053 173.46 23.1002C173.469 22.7644 173.505 22.4299 173.57 22.1002C173.574 22.0771 173.574 22.0534 173.57 22.0302C173.641 21.7399 173.734 21.4557 173.85 21.1802L173.97 20.9302C174.053 20.7496 174.15 20.5758 174.26 20.4102L174.39 20.1502Z" fill="#CCCCCC"/>
</g>
<g style="mix-blend-mode:multiply">
<path d="M165.48 36.0602C166.592 37.1325 167.975 37.8825 169.48 38.2302C172.333 38.6142 175.212 38.7647 178.09 38.6802C180.941 38.7231 183.792 38.6096 186.63 38.3402C187.117 38.2611 187.599 38.1475 188.07 38.0002L188.48 37.8402C188.784 37.7351 189.081 37.6116 189.37 37.4702L189.79 37.2402C190.05 37.0802 190.3 36.9102 190.54 36.7302L190.88 36.4702C191.169 36.2231 191.436 35.9521 191.68 35.6602C191.719 35.6261 191.756 35.5894 191.79 35.5502C192.062 35.216 192.303 34.8579 192.51 34.4802V34.4302C192.57 34.3102 192.62 34.1802 192.68 34.0602C192.74 33.9402 192.93 33.5602 193.03 33.2902C193.035 33.2571 193.035 33.2234 193.03 33.1902C193.161 32.8643 193.271 32.5303 193.36 32.1902C193.367 32.1204 193.367 32.0501 193.36 31.9802C193.39 31.865 193.413 31.7482 193.43 31.6302C193.43 31.6302 193.43 31.6302 193.43 31.5702C193.43 31.3569 193.46 31.1269 193.52 30.8802C193.525 30.8137 193.525 30.7468 193.52 30.6802C193.52 30.4502 193.57 30.2002 193.59 29.9302C193.595 29.9004 193.595 29.87 193.59 29.8402C193.59 29.5402 193.64 29.2202 193.66 28.8402C193.66 28.7402 193.66 28.6302 193.66 28.5202C193.66 28.4102 193.66 28.0302 193.66 27.7702C193.66 27.5102 193.66 27.5002 193.66 27.3702V26.6002C193.66 26.4702 193.66 26.3402 193.66 26.2002C193.66 25.8902 193.66 25.5802 193.66 25.2602V25.0002C193.66 24.6002 193.66 24.2002 193.66 23.7902V21.3502C193.66 21.2202 193.66 21.0902 193.66 20.9602C193.66 20.6602 193.66 20.3702 193.66 20.0802V19.8402C193.66 19.4702 193.66 19.1202 193.66 18.7802C193.66 18.7102 193.66 18.6502 193.66 18.5802C193.66 18.3102 193.66 18.0602 193.66 17.8102C193.66 17.7102 193.66 17.6202 193.66 17.5302C193.66 17.4402 193.66 17.1302 193.66 16.9502C193.66 16.7702 193.66 16.7802 193.66 16.6902C193.66 16.6002 193.66 16.3402 193.66 16.1802C193.66 16.0202 193.66 16.0602 193.66 16.0102C193.66 15.9602 193.66 15.6602 193.66 15.5202C193.62 15.0681 193.543 14.6199 193.43 14.1802C193.43 14.0402 193.35 13.9102 193.31 13.7702C193.27 13.6302 193.19 13.3202 193.11 13.1102C193.03 12.9002 193.04 12.9702 193.01 12.8902C192.98 12.8102 192.9 12.6602 192.85 12.5402C192.71 12.2602 192.55 11.9802 192.38 11.7102C192.32 11.6102 192.26 11.5102 192.19 11.4102C192.12 11.3102 192.13 11.3002 192.09 11.2602C191.859 10.9454 191.605 10.648 191.33 10.3702L185.33 4.37024C185.642 4.67809 185.926 5.01271 186.18 5.37024L186.38 5.67024C186.553 5.93916 186.706 6.21985 186.84 6.51024C186.9 6.62024 186.95 6.74024 187 6.85024C187.119 7.1366 187.22 7.43058 187.3 7.73024C187.3 7.87024 187.39 8.00024 187.43 8.14024C187.533 8.58528 187.61 9.03608 187.66 9.49024C187.66 9.63024 187.66 9.81024 187.66 10.0102C187.655 10.0735 187.655 10.137 187.66 10.2002C187.66 10.3502 187.66 10.5102 187.66 10.6902L183.28 6.29024C182.429 5.46744 181.334 4.94137 180.16 4.79024C177.584 4.54487 174.997 4.44471 172.41 4.49024C169.33 4.49024 166.26 4.58024 164.9 4.72024C164.542 4.76653 164.187 4.84007 163.84 4.94024L163.53 5.04024C163.309 5.11477 163.092 5.20157 162.88 5.30024L162.56 5.47024C162.37 5.58024 162.2 5.69024 162.03 5.81024L161.75 6.03024C161.58 6.17024 161.44 6.33024 161.29 6.48024L161.13 6.65024C161.107 6.67783 161.086 6.70803 161.07 6.74024C160.98 6.85024 160.9 6.98024 160.82 7.10024C160.74 7.22024 160.69 7.28024 160.63 7.38024C160.628 7.41689 160.628 7.45359 160.63 7.49024C160.577 7.59076 160.531 7.69427 160.49 7.80024C160.432 7.90302 160.382 8.00999 160.34 8.12024C160.34 8.17024 160.34 8.23024 160.34 8.29024L160.22 8.67024C160.22 8.76024 160.16 8.85024 160.14 8.95024L160.05 9.39024C160.05 9.56024 160.05 9.77024 159.98 9.99024C159.975 10.0768 159.975 10.1637 159.98 10.2502C159.98 10.3902 159.98 10.5202 159.98 10.6802V10.7502C159.98 10.8202 159.98 10.9102 159.98 10.9902C159.98 11.0702 159.98 11.3802 159.98 11.5902C159.98 11.8002 159.98 11.8002 159.98 11.9102C159.98 12.0202 159.98 12.3202 159.98 12.5402C159.98 12.7602 159.98 12.7702 159.98 12.9002V13.6002C159.98 13.7102 159.98 13.8202 159.98 13.9302C159.98 14.2802 159.98 14.6402 159.98 15.0002C159.985 15.0668 159.985 15.1337 159.98 15.2002C159.98 15.5002 159.98 15.8102 159.98 16.1202V16.5302C159.98 16.7702 159.98 17.0102 159.98 17.2502V18.8202C159.98 19.1402 159.98 19.4502 159.98 19.7602V19.9102C159.98 20.2702 159.98 20.6202 159.98 20.9602C159.985 21.0502 159.985 21.1403 159.98 21.2302C159.98 21.4802 159.98 21.7102 159.98 21.9402C159.98 22.1702 159.98 22.1602 159.98 22.2602C159.98 22.3602 159.98 22.6602 159.98 22.8502C159.98 23.0402 159.98 23.0502 159.98 23.1402C159.98 23.2302 159.98 23.5202 159.98 23.7002C159.98 23.8802 159.98 23.8302 159.98 23.9002C159.98 23.9702 159.98 24.3202 159.98 24.5002C159.98 24.7102 159.98 24.8802 160.04 25.0202C160.098 25.4273 160.202 25.8265 160.35 26.2102C160.344 26.2601 160.344 26.3104 160.35 26.3602C160.35 26.3602 160.35 26.4302 160.4 26.4702C160.552 26.8239 160.743 27.1593 160.97 27.4702C160.97 27.4702 160.97 27.4702 160.97 27.5202C161.106 27.6993 161.253 27.8696 161.41 28.0302L165.83 32.4602C165.007 32.4305 164.187 32.3335 163.38 32.1702C162.97 32.0602 162.58 31.9402 162.21 31.8002C161.181 31.393 160.245 30.7806 159.46 30.0002L165.48 36.0602ZM187.88 11.2402C187.875 11.3135 187.875 11.387 187.88 11.4602C187.88 11.5702 187.88 11.6702 187.88 11.7802C187.88 11.8902 187.88 12.2402 187.88 12.4802V12.7402C187.88 12.9602 187.88 13.2002 187.88 13.4302L185.14 10.6902C185.61 10.6902 186.01 10.7602 186.31 10.8002C186.849 10.8836 187.376 11.0313 187.88 11.2402ZM181.62 10.5402C181.62 10.5402 181.57 10.5902 181.53 10.6002H181.44C181.227 10.688 181 10.7354 180.77 10.7402C180.468 10.7262 180.173 10.6406 179.91 10.4902L181.62 10.5402ZM178.62 10.5402H179.76L185.49 16.2902C185.835 16.6354 186.302 16.8297 186.79 16.8302C187.019 16.8286 187.247 16.7845 187.46 16.7002H187.55C187.694 16.6338 187.831 16.5534 187.96 16.4602V16.5702C187.96 16.8602 187.96 17.1402 187.96 17.4202V17.8002C187.96 18.2002 187.96 18.6002 187.96 18.9902C187.965 19.0702 187.965 19.1503 187.96 19.2302C187.96 19.5502 187.96 19.8702 187.96 20.1802C187.96 20.3102 187.96 20.4402 187.96 20.5702C187.96 20.7002 187.96 21.0902 187.96 21.3402C187.96 21.5902 187.96 21.6102 187.96 21.7402V22.5002C187.96 22.6102 187.96 22.7102 187.96 22.8202C187.96 23.1602 187.96 23.4802 187.9 23.8202C187.9 23.8202 187.9 23.8802 187.9 23.9102C187.9 24.1802 187.85 24.4302 187.83 24.6702C187.83 24.7302 187.83 24.8002 187.83 24.8602C187.83 25.1102 187.77 25.3502 187.74 25.5502C187.74 25.5502 187.74 25.5502 187.74 25.6102C187.714 25.8021 187.677 25.9924 187.63 26.1802C187.52 26.5702 187.39 26.9502 187.25 27.3102C187.11 27.6702 187.02 27.8202 186.89 28.0702C186.76 28.3202 186.76 28.3602 186.69 28.4902C186.476 28.8659 186.232 29.2237 185.96 29.5602C185.925 29.6082 185.885 29.6519 185.84 29.6902C185.591 29.9773 185.324 30.2479 185.04 30.5002L184.7 30.7602C184.461 30.9507 184.207 31.1213 183.94 31.2702C183.804 31.3549 183.664 31.4317 183.52 31.5002C183.24 31.6402 182.95 31.7602 182.64 31.8802L182 32.0002C181.529 32.1475 181.047 32.2611 180.56 32.3402C177.719 32.6191 174.864 32.736 172.01 32.6902C170.01 32.6902 168.01 32.6902 166.44 32.5602C166.401 32.4794 166.367 32.3959 166.34 32.3102C166.203 31.9232 166.099 31.5251 166.03 31.1202C166.03 30.9802 166.03 30.8002 165.97 30.6002C165.91 30.4002 165.97 30.2102 165.97 29.9802C165.97 29.9202 165.97 29.8502 165.97 29.7802C165.97 29.7102 165.97 29.4302 165.97 29.2302C165.97 29.0302 165.97 29.0302 165.97 28.9302C165.97 28.8302 165.97 28.5502 165.97 28.3502C165.97 28.1502 165.97 28.1402 165.97 28.0202C165.97 27.9002 165.97 27.5802 165.97 27.3502C165.97 27.1202 165.97 27.1402 165.97 27.0302C165.97 26.7002 165.97 26.3602 165.97 26.0302V25.8002C165.97 25.5202 165.97 25.2202 165.97 24.9302V23.7002C165.97 23.5602 165.97 23.4302 165.97 23.2902V22.1502C165.97 21.8302 165.97 21.5202 165.97 21.2002V21.0002V19.9202C165.965 19.8236 165.965 19.7268 165.97 19.6302C165.97 19.3802 165.97 19.1302 165.97 18.8802C165.97 18.6302 165.97 18.6602 165.97 18.5502V17.9002C165.97 17.8002 165.97 17.6902 165.97 17.5902C165.97 17.4902 165.97 17.1702 165.97 16.9702C165.97 16.7702 165.97 16.8202 165.97 16.7502C165.97 16.6802 165.97 16.4002 165.97 16.2302C165.97 16.0602 165.97 16.0602 165.97 15.9902C165.97 15.7602 165.97 15.5602 166.05 15.3902C166.09 15.1434 166.147 14.8995 166.22 14.6602C166.22 14.5402 166.29 14.4102 166.33 14.2902C166.37 14.1702 166.46 13.9502 166.53 13.7902C166.6 13.6302 166.62 13.5802 166.68 13.4802C166.753 13.3459 166.833 13.2157 166.92 13.0902C167 12.9702 167.07 12.8502 167.16 12.7402C167.25 12.6302 167.31 12.5702 167.39 12.4802C167.53 12.3204 167.68 12.1701 167.84 12.0302C167.932 11.9514 168.029 11.8779 168.13 11.8102C168.296 11.6854 168.469 11.5719 168.65 11.4702C168.757 11.4076 168.867 11.3509 168.98 11.3002C169.188 11.2016 169.402 11.1148 169.62 11.0402L169.93 10.9302C170.282 10.8382 170.639 10.7681 171 10.7202C172.47 10.6002 175.54 10.5102 178.63 10.5102L178.62 10.5402Z" fill="#CCCCCC"/>
</g>
<path d="M180.79 7.05023C181.033 7.0502 181.273 7.09851 181.497 7.19235C181.721 7.28618 181.924 7.42367 182.095 7.59679C182.265 7.76991 182.399 7.9752 182.489 8.2007C182.579 8.4262 182.624 8.6674 182.62 8.91023C182.62 9.2781 182.511 9.63772 182.306 9.94359C182.102 10.2495 181.812 10.4879 181.472 10.6286C181.132 10.7694 180.758 10.8063 180.397 10.7345C180.036 10.6627 179.705 10.4856 179.445 10.2255C179.185 9.96532 179.007 9.6339 178.936 9.2731C178.864 8.9123 178.901 8.53831 179.041 8.19844C179.182 7.85857 179.421 7.56808 179.727 7.3637C180.032 7.15932 180.392 7.05023 180.76 7.05023H180.79Z" fill="white"/>
<path d="M187.78 9.44027C188.01 11.8703 188.16 23.4403 187.44 26.1003C187.088 27.7166 186.239 29.1823 185.013 30.2922C183.786 31.4022 182.243 32.1008 180.6 32.2903C177.759 32.5691 174.904 32.686 172.05 32.6403C169.172 32.7225 166.293 32.5687 163.44 32.1803C161.83 31.8487 160.366 31.0162 159.257 29.8019C158.149 28.5877 157.453 27.054 157.27 25.4203C156.86 22.8103 156.81 10.6703 157.57 8.03027C157.946 6.45954 158.794 5.04196 160.002 3.96898C161.209 2.896 162.716 2.2193 164.32 2.03027C166.896 1.74569 169.488 1.62877 172.08 1.68027C174.97 1.68027 177.89 1.76027 179.65 1.85027C181.754 1.90346 183.765 2.72929 185.3 4.17027C186.748 5.56094 187.632 7.43785 187.78 9.44027ZM184.78 24.9103C185.197 19.8511 185.271 14.7694 185 9.70027C184.943 8.45877 184.444 7.27856 183.593 6.37269C182.742 5.46681 181.595 4.89493 180.36 4.76027C177.784 4.5149 175.197 4.41474 172.61 4.46027C169.53 4.46027 166.46 4.55027 165.1 4.70027C163.851 4.7621 162.663 5.2638 161.748 6.11662C160.833 6.96943 160.249 8.1184 160.1 9.36027C159.683 14.5641 159.65 19.7915 160 25.0003C160.101 26.0374 160.523 27.017 161.208 27.8023C161.893 28.5876 162.806 29.1393 163.82 29.3803C166.578 29.7774 169.365 29.9313 172.15 29.8403C175.4 29.8403 178.59 29.7403 179.79 29.6003C181.045 29.5413 182.238 29.0367 183.155 28.1771C184.071 27.3174 184.651 26.1591 184.79 24.9103" fill="white"/>
<path d="M172.54 9.21027C173.585 9.20878 174.62 9.41565 175.584 9.81878C176.548 10.2219 177.422 10.8132 178.155 11.5581C178.888 12.303 179.464 13.1865 179.852 14.157C180.239 15.1275 180.429 16.1655 180.41 17.2103C180.394 19.3216 179.545 21.341 178.046 22.8284C176.547 24.3157 174.522 25.1503 172.41 25.1503C171.365 25.1518 170.331 24.9449 169.367 24.5418C168.403 24.1386 167.529 23.5473 166.796 22.8024C166.063 22.0575 165.486 21.174 165.099 20.2035C164.712 19.233 164.522 18.195 164.54 17.1503C164.556 15.039 165.406 13.0195 166.905 11.5322C168.403 10.0448 170.429 9.21021 172.54 9.21027ZM172.42 22.2903C173.779 22.2905 175.083 21.7571 176.052 20.805C177.021 19.853 177.577 18.5584 177.6 17.2003C177.614 16.531 177.495 15.8657 177.25 15.2424C177.006 14.6191 176.641 14.0501 176.177 13.568C175.713 13.086 175.158 12.7002 174.544 12.4329C173.93 12.1656 173.27 12.022 172.6 12.0103C171.242 12.0101 169.938 12.5434 168.969 13.4955C168 14.4476 167.444 15.7421 167.42 17.1003C167.407 17.7696 167.526 18.4349 167.77 19.0582C168.014 19.6814 168.379 20.2504 168.844 20.7325C169.308 21.2146 169.863 21.6003 170.477 21.8676C171.091 22.135 171.751 22.2786 172.42 22.2903Z" fill="white"/>
</svg>
